<svg id="Layer_1" data-name="Layer 1" xmlns="http://www.w3.org/2000/svg" viewBox="0 0 90 100"><title>arrowup_green</title><path d="M45,89a9.51,9.51,0,0,1-9.5-9.5V33.44L21.87,47.07A9.5,9.5,0,0,1,8.43,33.63l29.7-29.7.08-.07a9.48,9.48,0,0,1,13.57,0l.08.07,29.7,29.7A9.5,9.5,0,0,1,68.13,47.07L54.5,33.44V79.5A9.51,9.51,0,0,1,45,89Z" style="fill:#009245"/><path d="M45,1.5a8.94,8.94,0,0,1,6.44,2.72l0,0,0,0L81.21,34A9,9,0,1,1,68.49,46.71L55.71,33.93,54,32.23V79.5a9,9,0,0,1-18,0V32.23l-1.71,1.71L21.51,46.71A9,9,0,0,1,8.79,34L38.47,4.3l.07-.06,0,0A8.93,8.93,0,0,1,45,1.5m0-1a10,10,0,0,0-7.14,3l-.08.07L8.08,33.28A10,10,0,1,0,22.22,47.42L35,34.64V79.5a10,10,0,0,0,20,0V34.64L67.78,47.42A10,10,0,0,0,81.92,33.28L52.22,3.58l-.08-.07A10,10,0,0,0,45,.5Z" style="fill:#009245"/></svg>