<svg id="Layer_1" data-name="Layer 1" xmlns="http://www.w3.org/2000/svg" xmlns:xlink="http://www.w3.org/1999/xlink" viewBox="0 0 197 62"><defs><linearGradient id="linear-gradient" x1="2.5" y1="31" x2="194.5" y2="31" gradientUnits="userSpaceOnUse"><stop offset="0" stop-color="#8cc63f"/><stop offset="1"/></linearGradient><linearGradient id="linear-gradient-2" x1="138.5" y1="43.71" x2="4.31" y2="8.08" gradientUnits="userSpaceOnUse"><stop offset="0" stop-color="#8cc63f"/><stop offset="0.07" stop-color="#94c94e"/><stop offset="0.4" stop-color="#b7d58f"/><stop offset="0.67" stop-color="#d0debe"/><stop offset="0.88" stop-color="#e0e4db"/><stop offset="1" stop-color="#e6e6e6"/></linearGradient></defs><title>Artboard 1</title><polygon points="2.5 37.5 2.5 8.5 194.5 8.5 194.5 53.5 21.5 53.5 2.5 37.5" style="stroke:#fff;stroke-miterlimit:10;fill:url(#linear-gradient)"/><path d="M140.44,35.73l12-2.29A90.25,90.25,0,0,0,167.54,49.5l-12.93-.07C145.71,42.16,141.79,38.11,140.44,35.73Z" style="fill:#97c91c;stroke:#fff;stroke-miterlimit:10"/><path d="M183.63,49.5c-10-8-15.83-17.1-18.48-29.35,6.52-5.64,17.41-9.74,29.35-10.87V2.21c-17.94.46-33,4.15-43.48,13A81.15,81.15,0,0,0,174.93,49.5Z" style="fill:#97c91c;stroke:#fff;stroke-miterlimit:10"/><path d="M185.26,28.09a39,39,0,0,1,9.24-4.89V15.59c-7.55,2.62-13.93,5.93-18.48,10.33a40.76,40.76,0,0,0,9.24,16.85C185.34,36.46,185.17,31.64,185.26,28.09Z" style="fill:#97c91c;stroke:#fff;stroke-miterlimit:10"/><polygon points="2.5 45.63 18.96 60.5 194.5 60.5 194.5 53.5 21.7 53.5 2.5 36 2.5 45.63" style="fill:#97c91c;stroke:#fff;stroke-miterlimit:10"/><path d="M20.61,25.31h8.45v8.91a2.16,2.16,0,0,1-.65,1.54l-.24.23a2.25,2.25,0,0,1-1.57.64H17.93a2.88,2.88,0,0,1-2-.82l-2.18-2.14a2.77,2.77,0,0,1-.83-2V20.11a2.76,2.76,0,0,1,.48-1.55l.22-.32A2.86,2.86,0,0,1,16,17H28.29v3.78H16.75V30.3a2.51,2.51,0,0,0,.76,1.79l0,0a2.61,2.61,0,0,0,1.83.74h5.86V28.34h-4.6ZM32.53,36.63H45.37V32.86H36.31V28.33h7.55v-3H36.31V20.78h9.06V17H32.53Zm16.61,0h3.78V28.33h7.55v-3H52.92V20.78H62V17H49.14ZM65,20.55V33.08a3.55,3.55,0,0,0,3.55,3.55H77.3a3.55,3.55,0,0,0,3.55-3.55V20.55A3.55,3.55,0,0,0,77.3,17H68.55A3.55,3.55,0,0,0,65,20.55Zm5.57.22h4.72a1.79,1.79,0,0,1,1.79,1.79v8.49a1.79,1.79,0,0,1-1.79,1.79H70.57a1.79,1.79,0,0,1-1.79-1.79V22.57A1.79,1.79,0,0,1,70.57,20.78ZM83.88,36.63h3.78V28.33h4.53L96,36.63h3.78L96,28.33h0a2.82,2.82,0,0,0,2.35-1.26l.2-.3A2.82,2.82,0,0,0,99,25.21V20.43a2.82,2.82,0,0,0-.83-2l-.61-.61a2.82,2.82,0,0,0-2-.83H83.88Zm3.78-15.86h5.73A1.82,1.82,0,0,1,95.2,22.6v.88a1.82,1.82,0,0,1-1.82,1.82H87.65ZM106.19,17a3.87,3.87,0,0,0-3.09,1.55l-.33.44a3.87,3.87,0,0,0-.77,2.32V32.76a3.87,3.87,0,0,0,1.13,2.73h0a3.87,3.87,0,0,0,2.73,1.13h9.72V32.86h-8.35a1.46,1.46,0,0,1-1.46-1.46V22.24a1.46,1.46,0,0,1,1.46-1.46h8.35V17Zm13.17,19.63H132.2V32.86h-9.06V28.33h7.55v-3h-7.55V20.78h9.06V17H119.36Z" style="fill:url(#linear-gradient-2)"/></svg>