<svg id="Layer_1" data-name="Layer 1" xmlns="http://www.w3.org/2000/svg" viewBox="0 0 200 200"><title>BTC</title><path d="M101,22a78,78,0,1,1-78,78,78.09,78.09,0,0,1,78-78m0-10a88,88,0,1,0,88,88,88,88,0,0,0-88-88Z" style="fill:#ff931e;stroke:#ff931e;stroke-miterlimit:10"/><path d="M76.84,137.71v-73h-12V52.55h18.5V42h7.77V52.55l4.79-.19V42h7.38V52.66s10.76.71,14,1.49q6.68,1.61,11.79,8.15a24.24,24.24,0,0,1,5.11,15.36,24.69,24.69,0,0,1-3,12.25,19.54,19.54,0,0,1-8.92,8.26,24,24,0,0,1,12.49,9.27,25.82,25.82,0,0,1,4.37,14.8,26.57,26.57,0,0,1-3.25,13.09,23.71,23.71,0,0,1-8.64,9.1c-3.59,2.15-7.34,3.22-11.79,4.34-2.87.72-12.12.95-12.13,1s0,8.19,0,8.19H95.93v-8.12H91.14V158H83.37v-8.12H64.88V137.71Zm14.7-44.64h9.17q10.5,0,14.66-3.67t4.16-10.81q0-13.85-18.82-13.86H91.54Zm0,44.64h5.53q10.84,0,15.89-1.08a13.91,13.91,0,0,0,8.22-5.11,16.12,16.12,0,0,0,3.18-10.32,15.12,15.12,0,0,0-3-9.62,14.52,14.52,0,0,0-7.84-5.18,54.7,54.7,0,0,0-13.54-1.29h-8.4Z" style="fill:#ff931e;stroke:#ff931e;stroke-miterlimit:10"/></svg>