<svg id="Layer_1" data-name="Layer 1" xmlns="http://www.w3.org/2000/svg" viewBox="0 0 200 200"><title>ETH</title><circle cx="100" cy="99" r="88" style="fill:#1a1a1a"/><path d="M100,21A78,78,0,1,1,22,99a78.09,78.09,0,0,1,78-78m0-10a88,88,0,1,0,88,88,88,88,0,0,0-88-88Z" style="fill:#e6e6e6;stroke:#e6e6e6;stroke-miterlimit:10"/><path d="M99.94,122.39c-.59-.27-1.19-.5-1.73-.81L69.94,104.94q-4.07-2.39-8.17-4.73c-1.79-1-2.13-2.2-1.07-4Q79.3,65.31,97.93,34.37c1.11-1.84,3-1.83,4.12,0l37.24,61.87c1,1.72.81,2.76-.89,3.76q-18.49,10.91-37,21.78A11.34,11.34,0,0,1,99.94,122.39Z" style="fill:#e6e6e6"/><path d="M100,167a9.79,9.79,0,0,1-2-1.57q-10.64-14.76-21.2-29.58l-16-22.35c-1-1.34-1-2.34-.17-3.21,1-1,2.11-.75,3.24-.08,11.58,6.84,23.19,13.66,34.75,20.53a2.26,2.26,0,0,0,2.7,0q17-10.1,34-20.12c.39-.23.78-.47,1.19-.67a2.09,2.09,0,0,1,2.74.43,2.06,2.06,0,0,1,.08,2.77l-7.66,10.73Q116.9,144.61,102,165.37A10.74,10.74,0,0,1,100,167Z" style="fill:#e6e6e6"/></svg>