<svg id="Layer_1" data-name="Layer 1" xmlns="http://www.w3.org/2000/svg" xmlns:xlink="http://www.w3.org/1999/xlink" viewBox="0 0 197 62"><defs><linearGradient id="geforce" x1="-14.5" y1="31" x2="218.25" y2="31" gradientUnits="userSpaceOnUse"><stop offset="0" stop-color="#8cc63f"/><stop offset="0.21" stop-color="#334c00"/><stop offset="0.67"/></linearGradient><linearGradient id="linear-gradient" x1="-32.4" y1="11.7" x2="107.86" y2="37.13" gradientUnits="userSpaceOnUse"><stop offset="0" stop-color="#fff"/><stop offset="1" stop-color="#e6e6e6"/></linearGradient></defs><title>geforce</title><polygon points="2.5 42.5 2.5 8.5 194.5 8.5 194.5 53.5 15.5 53.5 2.5 42.5" style="stroke:#fff;stroke-miterlimit:10;fill:url(#geforce)"/><path d="M140.44,39.73l12-2.29A90.25,90.25,0,0,0,167.54,53.5l-12.93-.07C145.71,46.16,141.79,42.11,140.44,39.73Z" style="fill:#97c91c;stroke:#fff;stroke-miterlimit:10"/><path d="M183.63,53.5c-10-8-15.83-17.1-18.48-29.35,6.52-5.64,17.41-9.74,29.35-10.87V6.21c-17.94.46-33,4.15-43.48,13A81.15,81.15,0,0,0,174.93,53.5Z" style="fill:#97c91c;stroke:#fff;stroke-miterlimit:10"/><path d="M185.26,32.09a39,39,0,0,1,9.24-4.89V19.59c-7.55,2.62-13.93,5.93-18.48,10.33a40.76,40.76,0,0,0,9.24,16.85C185.34,40.46,185.17,35.64,185.26,32.09Z" style="fill:#97c91c;stroke:#fff;stroke-miterlimit:10"/><polygon points="2.5 51.63 12.96 60.5 194.5 60.5 194.5 53.5 15.7 53.5 2.5 41 2.5 51.63" style="fill:#97c91c;stroke:#fff;stroke-miterlimit:10"/><path d="M18.14,29.67h8.93v9.41a2.28,2.28,0,0,1-.69,1.63l-.25.24a2.37,2.37,0,0,1-1.66.67H15.31a3,3,0,0,1-2.13-.86l-2.3-2.26A2.92,2.92,0,0,1,10,36.42V24.18a2.91,2.91,0,0,1,.51-1.64l.23-.33a3,3,0,0,1,2.5-1.31h13v4H14.06V34.94a2.65,2.65,0,0,0,.8,1.89l0,0a2.75,2.75,0,0,0,1.93.78H23V32.87H18.14Zm12.59,12H44.29v-4H34.72V32.86h8V29.67h-8V24.88h9.57v-4H30.73Zm17.54,0h4V32.86h8V29.67h-8V24.88h9.57v-4H48.28ZM65,24.65V37.88a3.75,3.75,0,0,0,3.75,3.75H78a3.75,3.75,0,0,0,3.75-3.75V24.65A3.75,3.75,0,0,0,78,20.9H68.78A3.75,3.75,0,0,0,65,24.65Zm5.88.23h5a1.89,1.89,0,0,1,1.89,1.89v9a1.89,1.89,0,0,1-1.89,1.89h-5A1.89,1.89,0,0,1,69,35.75v-9A1.89,1.89,0,0,1,70.91,24.88ZM85,41.63h4V32.86h4.78l4,8.77h4l-4-8.77h0a3,3,0,0,0,2.48-1.33l.21-.31a3,3,0,0,0,.5-1.65v-5a3,3,0,0,0-.87-2.11l-.65-.65a3,3,0,0,0-2.11-.87H85Zm4-16.75h6a1.93,1.93,0,0,1,1.93,1.93v.93A1.93,1.93,0,0,1,95,29.67h-6Zm19.59-4a4.08,4.08,0,0,0-3.27,1.63l-.35.47a4.08,4.08,0,0,0-.82,2.45v12.1a4.08,4.08,0,0,0,1.2,2.89h0a4.08,4.08,0,0,0,2.89,1.2h10.27v-4h-8.82a1.55,1.55,0,0,1-1.55-1.55V26.43a1.55,1.55,0,0,1,1.55-1.55h8.82v-4Zm13.91,20.73H136v-4h-9.57V32.86h8V29.67h-8V24.88H136v-4H122.44Z" style="fill:url(#linear-gradient)"/></svg>