<svg id="Layer_1" data-name="Layer 1" xmlns="http://www.w3.org/2000/svg" xmlns:xlink="http://www.w3.org/1999/xlink" viewBox="0 0 180 597"><defs><linearGradient id="linear-gradient" x1="90" y1="596.5" x2="90" y2="0.5" gradientUnits="userSpaceOnUse"><stop offset="0" stop-color="gray"/><stop offset="0.08" stop-color="#505050"/><stop offset="0.7" stop-color="#4d4d4d"/><stop offset="0.78" stop-color="#4d4d4d"/><stop offset="0.96" stop-color="#8c8a8a"/><stop offset="1" stop-color="#5c5959"/></linearGradient><radialGradient id="radial-gradient" cx="90.5" cy="120.5" r="71" gradientUnits="userSpaceOnUse"><stop offset="0.02" stop-color="#b40000"/><stop offset="1" stop-color="#521c24"/></radialGradient><radialGradient id="radial-gradient-2" cx="89.5" cy="484.5" r="71" gradientUnits="userSpaceOnUse"><stop offset="0.02" stop-color="#2aff38"/><stop offset="0.41" stop-color="#1bd400"/><stop offset="0.44" stop-color="#19cc00"/><stop offset="0.61" stop-color="#0ea201"/><stop offset="0.77" stop-color="#068302"/><stop offset="0.91" stop-color="#027103"/><stop offset="1" stop-color="#006a03"/></radialGradient><radialGradient id="radial-gradient-3" cx="90.5" cy="302.5" r="71" gradientUnits="userSpaceOnUse"><stop offset="0" stop-color="#d17400"/><stop offset="0.17" stop-color="#b75c00"/><stop offset="0.41" stop-color="#984100"/><stop offset="0.61" stop-color="#863000"/><stop offset="0.75" stop-color="#7f2a00"/></radialGradient></defs><title>Artboard 1</title><rect x="0.5" y="0.5" width="179" height="596" style="fill:url(#linear-gradient)"/><path d="M179,1V596H1V1H179m1-1H0V597H180V0Z"/><path d="M90.5,191.5a71,71,0,1,1,71-71A71.08,71.08,0,0,1,90.5,191.5Z" style="fill:url(#radial-gradient)"/><path d="M90.5,50A70.5,70.5,0,1,1,20,120.5,70.58,70.58,0,0,1,90.5,50m0-1A71.5,71.5,0,1,0,162,120.5,71.5,71.5,0,0,0,90.5,49Z"/><path d="M89.5,555.5a71,71,0,1,1,71-71A71.08,71.08,0,0,1,89.5,555.5Z" style="fill:url(#radial-gradient-2)"/><path d="M89.5,414A70.5,70.5,0,1,1,19,484.5,70.58,70.58,0,0,1,89.5,414m0-1A71.5,71.5,0,1,0,161,484.5,71.5,71.5,0,0,0,89.5,413Z"/><path d="M90.5,373.5a71,71,0,1,1,71-71A71.08,71.08,0,0,1,90.5,373.5Z" style="fill:url(#radial-gradient-3)"/><path d="M90.5,232A70.5,70.5,0,1,1,20,302.5,70.58,70.58,0,0,1,90.5,232m0-1A71.5,71.5,0,1,0,162,302.5,71.5,71.5,0,0,0,90.5,231Z"/></svg>