<svg id="Layer_1" data-name="Layer 1" xmlns="http://www.w3.org/2000/svg" xmlns:xlink="http://www.w3.org/1999/xlink" viewBox="0 0 20 66" width="20" height="66"><defs><linearGradient id="linear-gradient" x1="10" y1="66.08" x2="10" y2="0.25" gradientUnits="userSpaceOnUse"><stop offset="0" stop-color="gray"/><stop offset="0.08" stop-color="#505050"/><stop offset="0.7" stop-color="#4d4d4d"/><stop offset="0.78" stop-color="#4d4d4d"/><stop offset="0.96" stop-color="#8c8a8a"/><stop offset="1" stop-color="#5c5959"/></linearGradient><radialGradient id="radial-gradient" cx="10.06" cy="13.39" r="7.44" gradientUnits="userSpaceOnUse"><stop offset="0.02" stop-color="#6b0000"/><stop offset="0.48" stop-color="#280000"/></radialGradient><radialGradient id="radial-gradient-2" cx="9.94" cy="53.83" r="7.44" gradientUnits="userSpaceOnUse"><stop offset="0.02" stop-color="#c5ff84"/><stop offset="0.39" stop-color="#70ea42"/><stop offset="0.79" stop-color="#1bd400"/><stop offset="0.8" stop-color="#19cc00"/><stop offset="0.86" stop-color="#0ea201"/><stop offset="0.92" stop-color="#068302"/><stop offset="0.97" stop-color="#027103"/><stop offset="1" stop-color="#006a03"/></radialGradient><radialGradient id="radial-gradient-3" cx="10.06" cy="33.61" r="7.44" gradientUnits="userSpaceOnUse"><stop offset="0" stop-color="#7f4900"/><stop offset="0.15" stop-color="#603400"/><stop offset="0.32" stop-color="#412100"/><stop offset="0.47" stop-color="#2f1400"/><stop offset="0.57" stop-color="#281000"/></radialGradient></defs><title>green-lit</title><rect x="0.25" y="0.25" width="19.5" height="65.83" style="fill:url(#linear-gradient)"/><path d="M19.5.5V65.83H.5V.5h19M20,0H0V66.33H20V0Z"/><circle cx="10.06" cy="13.39" r="7.44" style="fill:url(#radial-gradient)"/><path d="M10.06,6.44a6.94,6.94,0,1,1-6.94,6.94,7,7,0,0,1,6.94-6.94m0-1A7.94,7.94,0,1,0,18,13.39a7.94,7.94,0,0,0-7.94-7.94Z"/><circle cx="9.94" cy="53.83" r="7.44" style="fill:url(#radial-gradient-2)"/><path d="M9.94,46.89A6.94,6.94,0,1,1,3,53.83a7,7,0,0,1,6.94-6.94m0-1a7.94,7.94,0,1,0,7.94,7.94,7.94,7.94,0,0,0-7.94-7.94Z"/><circle cx="10.06" cy="33.61" r="7.44" style="fill:url(#radial-gradient-3)"/><path d="M10.06,26.67a6.94,6.94,0,1,1-6.94,6.94,7,7,0,0,1,6.94-6.94m0-1A7.94,7.94,0,1,0,18,33.61a7.94,7.94,0,0,0-7.94-7.94Z"/></svg>