<svg xmlns="http://www.w3.org/2000/svg" viewBox="0 0 415.7 373"><title>large-logo</title><g id="Layer_2" data-name="Layer 2"><g id="Layer_1-2" data-name="Layer 1"><path d="M204.68,213.29,116.59,369.21A2.54,2.54,0,0,0,118.8,373H295.51a2.54,2.54,0,0,0,2.19-3.83L208.08,213.25C207.09,211.57,205.64,211.59,204.68,213.29Z" style="fill:#e6e6e6"/><path d="M93.22,351.09,1.85,193.69a12.8,12.8,0,0,1,0-13.35L95.39,26.27a3.31,3.31,0,0,1,5.68.08L189.76,180c2.51,4.34,3.58,7.67,1.19,12.07L100.1,350.92A4,4,0,0,1,93.22,351.09Z" style="fill:#e6e6e6"/><path d="M317.22,351.09l-92.36-159.4c-2.49-4.11-3.47-7.26-1-11.35L312.39,26.27a3.31,3.31,0,0,1,5.68.08L413.76,180a14.39,14.39,0,0,1,.19,14.07L324.1,350.92A4,4,0,0,1,317.22,351.09Z" style="fill:#e6e6e6"/><path d="M210.63,159.71,298.72,3.79A2.54,2.54,0,0,0,296.51,0H118.8a2.54,2.54,0,0,0-2.19,3.83l89.62,155.92A2.54,2.54,0,0,0,210.63,159.71Z" style="fill:#e6e6e6"/></g></g></svg>