<svg id="Layer_1" data-name="Layer 1" xmlns="http://www.w3.org/2000/svg" viewBox="0 0 442 403"><title>new_logo</title><path d="M218.38,228.29,130.29,384.21A2.54,2.54,0,0,0,132.5,388H309.21a2.54,2.54,0,0,0,2.19-3.83L221.78,228.25C220.79,226.57,219.34,226.59,218.38,228.29Z" style="fill:#4d4d4d"/><path d="M106.92,366.09,15.55,208.69a12.8,12.8,0,0,1,0-13.35L109.09,41.27a3.31,3.31,0,0,1,5.68.08L203.46,195c2.51,4.34,3.58,7.67,1.19,12.07L113.8,365.92A4,4,0,0,1,106.92,366.09Z" style="fill:#4d4d4d;stroke:#fff;stroke-miterlimit:10"/><path d="M330.92,366.09l-92.36-159.4c-2.49-4.11-3.47-7.26-1-11.35L326.09,41.27a3.31,3.31,0,0,1,5.68.08L427.46,195a14.39,14.39,0,0,1,.19,14.07L337.8,365.92A4,4,0,0,1,330.92,366.09Z" style="fill:#4d4d4d;stroke:#fff;stroke-miterlimit:10"/><path d="M224.33,174.71,312.42,18.79A2.54,2.54,0,0,0,310.21,15H132.5a2.54,2.54,0,0,0-2.19,3.83l89.62,155.92A2.54,2.54,0,0,0,224.33,174.71Z" style="fill:#4d4d4d"/></svg>