<svg id="Layer_1" data-name="Layer 1" xmlns="http://www.w3.org/2000/svg" xmlns:xlink="http://www.w3.org/1999/xlink" viewBox="0 0 20 67" width="20" height="66"><defs><linearGradient id="New_Gradient_Swatch_copy" x1="10.1" y1="66.63" x2="10.1" y2="0.38" gradientUnits="userSpaceOnUse"><stop offset="0" stop-color="gray"/><stop offset="0.08" stop-color="#505050"/><stop offset="0.7" stop-color="#4d4d4d"/><stop offset="0.78" stop-color="#4d4d4d"/><stop offset="0.96" stop-color="#8c8a8a"/><stop offset="1" stop-color="#5c5959"/></linearGradient><radialGradient id="radial-gradient" cx="10.04" cy="54.37" r="7.52" gradientUnits="userSpaceOnUse"><stop offset="0.01" stop-color="#006837"/><stop offset="0.29" stop-color="#005831"/><stop offset="0.7" stop-color="#00462a"/><stop offset="1" stop-color="#003f27"/></radialGradient><radialGradient id="radial-gradient-2" cx="10.04" cy="54.37" r="7.52" gradientUnits="userSpaceOnUse"><stop offset="0.01" stop-color="#186000"/><stop offset="0.07" stop-color="#165b00"/><stop offset="0.45" stop-color="#0a3c02"/><stop offset="0.77" stop-color="#032a03"/><stop offset="1" stop-color="#002303"/></radialGradient><radialGradient id="radial-gradient-3" cx="10.16" cy="33.95" r="7.52" gradientUnits="userSpaceOnUse"><stop offset="0.02" stop-color="#f7ec3e"/><stop offset="0.5" stop-color="#f5ac19"/><stop offset="0.52" stop-color="#f3a817"/><stop offset="0.72" stop-color="#e2890b"/><stop offset="0.88" stop-color="#d87703"/><stop offset="1" stop-color="#d47000"/></radialGradient><radialGradient id="radial-gradient-4" cx="10.06" cy="13.39" r="7.44" gradientUnits="userSpaceOnUse"><stop offset="0.02" stop-color="#6b0000"/><stop offset="0.48" stop-color="#280000"/></radialGradient></defs><title>orange-lit</title><rect x="0.38" y="0.38" width="19.45" height="66.25" style="fill:url(#New_Gradient_Swatch_copy)"/><path d="M19.45.75v65.5H.75V.75h18.7M20.2,0H0V67H20.2V0Z"/><circle cx="10.04" cy="54.37" r="7.52" style="fill:url(#radial-gradient)"/><path d="M10,47.35a7,7,0,1,1-7,7,7,7,0,0,1,7-7m0-1a8,8,0,1,0,8,8,8,8,0,0,0-8-8Z"/><circle cx="10.04" cy="54.37" r="7.52" style="fill:url(#radial-gradient-2)"/><path d="M10,47.35a7,7,0,1,1-7,7,7,7,0,0,1,7-7m0-1a8,8,0,1,0,8,8,8,8,0,0,0-8-8Z"/><circle cx="10.16" cy="33.95" r="7.52" style="fill:url(#radial-gradient-3)"/><path d="M10.16,26.92a7,7,0,1,1-7,7,7,7,0,0,1,7-7m0-1a8,8,0,1,0,8,8,8,8,0,0,0-8-8Z"/><circle cx="10.06" cy="13.39" r="7.44" style="fill:url(#radial-gradient-4)"/><path d="M10.06,6.44a6.94,6.94,0,1,1-6.94,6.94,7,7,0,0,1,6.94-6.94m0-1A7.94,7.94,0,1,0,18,13.39a7.94,7.94,0,0,0-7.94-7.94Z"/></svg>