<svg id="Layer_1" data-name="Layer 1" xmlns="http://www.w3.org/2000/svg" xmlns:xlink="http://www.w3.org/1999/xlink" viewBox="0 0 88 88"><defs><radialGradient id="radial-gradient" cx="44" cy="44" r="65.33" gradientUnits="userSpaceOnUse"><stop offset="0" stop-color="#fff"/><stop offset="1"/></radialGradient><radialGradient id="radial-gradient-2" r="50.62" xlink:href="#radial-gradient"/><radialGradient id="radial-gradient-3" cx="44" cy="44" r="15" gradientUnits="userSpaceOnUse"><stop offset="0.02" stop-color="#f7ec3e"/><stop offset="0.5" stop-color="#f5ac19"/><stop offset="0.52" stop-color="#f3a817"/><stop offset="0.72" stop-color="#e2890b"/><stop offset="0.88" stop-color="#d87703"/><stop offset="1" stop-color="#d47000"/></radialGradient><radialGradient id="radial-gradient-4" cx="44" cy="44" r="22.52" gradientUnits="userSpaceOnUse"><stop offset="0.53" stop-color="#fff"/><stop offset="0.76"/></radialGradient></defs><title>orange_gear</title><path d="M41.42,85a1,1,0,0,1-1-.76L38,75a3,3,0,0,0-1.76-2l-5.9-2.45a3,3,0,0,0-2.42,0l-9.87,4.57a1,1,0,0,1-1.14-.2l-3.83-3.83a1,1,0,0,1-.19-1.17l4.48-9a3,3,0,0,0,.09-2.5L15,52.5a3,3,0,0,0-1.83-1.71L3.69,47.64a1,1,0,0,1-.69-1V41.42a1,1,0,0,1,.76-1L13,38a3,3,0,0,0,2-1.76l2.45-5.9a3,3,0,0,0,0-2.42l-4.57-9.87a1,1,0,0,1,.2-1.14l3.86-3.86a1,1,0,0,1,1.14-.2l9.87,4.57a3,3,0,0,0,2.42.05l5.9-2.45A3,3,0,0,0,38,13l2.41-9.27a1,1,0,0,1,1-.76h5.26a1,1,0,0,1,1,.69l3.15,9.49A3,3,0,0,0,52.5,15l5.95,2.46a3,3,0,0,0,1.15.23,3,3,0,0,0,1.34-.32l9-4.48a1,1,0,0,1,1.17.19l3.8,3.8a1,1,0,0,1,.19,1.17l-4.48,9a3,3,0,0,0-.09,2.5L73,35.5a3,3,0,0,0,1.83,1.71l9.49,3.15a1,1,0,0,1,.69,1v5.26a1,1,0,0,1-.76,1L75,50a3,3,0,0,0-2,1.76l-2.45,5.9a3,3,0,0,0,0,2.42l4.57,9.87a1,1,0,0,1-.2,1.14l-3.83,3.83a1,1,0,0,1-.72.3,1,1,0,0,1-.45-.11l-9-4.48a3,3,0,0,0-1.34-.32,3,3,0,0,0-1.15.23L52.5,73a3,3,0,0,0-1.71,1.83l-3.15,9.49a1,1,0,0,1-1,.69ZM44,31.5a13.82,13.82,0,0,0-6,1.41A10.85,10.85,0,0,0,32.91,38a12.88,12.88,0,0,0,.5,12.65A12.44,12.44,0,0,0,44,56.5a13.83,13.83,0,0,0,6-1.41A10.86,10.86,0,0,0,55.09,50a12.88,12.88,0,0,0-.5-12.65A12.45,12.45,0,0,0,44,31.5Z" style="fill:url(#radial-gradient)"/><path d="M46.68,4h0l3.15,9.49a4,4,0,0,0,2.27,2.44l5.95,2.46a4,4,0,0,0,1.54.31,4,4,0,0,0,1.79-.42l9-4.47,3.8,3.82-4.48,9a4,4,0,0,0-.12,3.33l2.46,5.95a4,4,0,0,0,2.44,2.27L84,41.32v5.28L74.72,49A4,4,0,0,0,72,51.35l-2.44,5.9a4,4,0,0,0,.07,3.22l4.57,9.88-3.85,3.83-9-4.48a4,4,0,0,0-1.79-.42,4,4,0,0,0-1.54.31l-5.95,2.46a4,4,0,0,0-2.27,2.44L46.68,84H41.41L39,74.72A4,4,0,0,0,36.65,72l-5.9-2.44a4,4,0,0,0-1.54-.31,4,4,0,0,0-1.69.37l-9.88,4.57-3.83-3.85,4.48-9a4,4,0,0,0,.12-3.33l-2.46-5.95a4,4,0,0,0-2.44-2.27L4,46.68V41.41L13.28,39A4,4,0,0,0,16,36.65l2.44-5.9a4,4,0,0,0-.07-3.22l-4.57-9.88,3.88-3.87,9.87,4.57a4,4,0,0,0,1.69.37,4,4,0,0,0,1.54-.31L36.65,16A4,4,0,0,0,39,13.28L41.42,4h5.26M44,57.5A14.82,14.82,0,0,0,50.43,56,11.86,11.86,0,0,0,56,50.43a13.86,13.86,0,0,0-.56-13.62A13.44,13.44,0,0,0,44,30.5,14.82,14.82,0,0,0,37.57,32,11.86,11.86,0,0,0,32,37.57a13.86,13.86,0,0,0,.56,13.62A13.44,13.44,0,0,0,44,57.5M46.68,2H41.42a2,2,0,0,0-1.95,1.51l-2.41,9.27a2,2,0,0,1-1.18,1.35L30,16.57a2,2,0,0,1-1.62,0L18.5,12a2,2,0,0,0-2.27.4l-3.86,3.86A2,2,0,0,0,12,18.5l4.57,9.87a2,2,0,0,1,0,1.62l-2.44,5.9a2,2,0,0,1-1.35,1.18L3.51,39.47A2,2,0,0,0,2,41.42v5.26a2,2,0,0,0,1.38,1.91l9.49,3.15a2,2,0,0,1,1.23,1.14l2.46,5.95a2,2,0,0,1-.06,1.67l-4.48,9a2,2,0,0,0,.38,2.32l3.83,3.83a2,2,0,0,0,2.27.4l9.87-4.57a2,2,0,0,1,1.62,0l5.9,2.44a2,2,0,0,1,1.18,1.35l2.41,9.27A2,2,0,0,0,41.42,86h5.26a2,2,0,0,0,1.91-1.38l3.15-9.49a2,2,0,0,1,1.14-1.23l5.95-2.46a2,2,0,0,1,1.67.06l9,4.48a2,2,0,0,0,2.32-.38l3.83-3.83A2,2,0,0,0,76,69.5l-4.57-9.87a2,2,0,0,1,0-1.62l2.44-5.9a2,2,0,0,1,1.35-1.18l9.27-2.41A2,2,0,0,0,86,46.58V41.32a2,2,0,0,0-1.38-1.91l-9.49-3.15a2,2,0,0,1-1.23-1.14l-2.46-5.95a2,2,0,0,1,.06-1.67l4.48-9a2,2,0,0,0-.38-2.32l-3.8-3.8A2,2,0,0,0,69.48,12l-9,4.48a2,2,0,0,1-1.67.06L52.88,14.1a2,2,0,0,1-1.14-1.23L48.59,3.38A2,2,0,0,0,46.68,2ZM44,55.5c-8.14,0-14.31-8.46-10.18-17.07a9.85,9.85,0,0,1,4.62-4.62A12.86,12.86,0,0,1,44,32.5c8.14,0,14.31,8.46,10.19,17.07a9.85,9.85,0,0,1-4.62,4.62A12.85,12.85,0,0,1,44,55.5Z" style="fill:#fff"/><path d="M44,15A29,29,0,1,0,73,44,29,29,0,0,0,44,15Zm0,41.51A12.51,12.51,0,1,1,56.51,44,12.51,12.51,0,0,1,44,56.51Z" style="fill:url(#radial-gradient-2)"/><circle cx="44" cy="44" r="15" style="fill:url(#radial-gradient-3)"/><path d="M44,31A13,13,0,1,1,31,44,13,13,0,0,1,44,31m0-2A15,15,0,1,0,59,44,15,15,0,0,0,44,29Z" style="fill:url(#radial-gradient-4)"/></svg>