<svg id="Layer_1" data-name="Layer 1" xmlns="http://www.w3.org/2000/svg" xmlns:xlink="http://www.w3.org/1999/xlink" viewBox="0 0 250 73"><defs><linearGradient id="linear-gradient" x1="75.33" y1="83.31" x2="241.33" y2="-33.25" gradientUnits="userSpaceOnUse"><stop offset="0" stop-color="#f34349"/><stop offset="1"/></linearGradient><linearGradient id="linear-gradient-2" x1="194" y1="42.18" x2="223.63" y2="42.18" gradientUnits="userSpaceOnUse"><stop offset="0" stop-color="#fff"/><stop offset="1" stop-color="#ff1d25"/></linearGradient><linearGradient id="linear-gradient-3" y1="34.55" x2="238" y2="34.55" xlink:href="#linear-gradient-2"/></defs><title>radeon</title><polygon points="0 29.42 15.37 13.07 175.64 13.07 185.88 0 250 0 250 73 0 73 0 29.42" style="stroke:#fff;stroke-miterlimit:10;stroke-width:2px;fill:url(#linear-gradient)"/><polygon points="194 57 194 39.94 205.67 27.37 205.67 43.53 223.63 43.53 211.06 57 194 57" style="fill:url(#linear-gradient-2)"/><polygon points="194 12.1 238 12.1 238 57 225.43 43.53 225.43 24.67 205.67 24.67 194 12.1" style="fill:url(#linear-gradient-3)"/><path d="M14,56V32H34.08a4,4,0,0,1,2.1.58A6.72,6.72,0,0,1,39.5,38.5c0,5-2.5,6.5-2.5,6.5a2,2,0,0,1,2,2v9H33V48.54a1.29,1.29,0,0,0-.38-.91l-.14-.14A1.64,1.64,0,0,0,31.32,47H21v9Zm7-13.5h9.81a2.3,2.3,0,0,0,1.37-.44A3.1,3.1,0,0,0,33.5,39.5c0-2.25-3.08-2.5-3.08-2.5H21ZM75,56V32H92.27a3.8,3.8,0,0,1,1.41.27L95.9,33a4.46,4.46,0,0,1,2.46,2h0a4.47,4.47,0,0,1,.64,2.3v13a5.94,5.94,0,0,1-1,3.29l0,0a5.16,5.16,0,0,1-2.66,2l-.72.24a3.91,3.91,0,0,1-1.24.2Zm6-5h8.83a2.83,2.83,0,0,0,2-.83h0A4,4,0,0,0,93,47.34V40.59a3.84,3.84,0,0,0-1.12-2.71l-.13-.13a2.54,2.54,0,0,0-1.8-.75H81Zm22,5h23V51H109V46h16V42H109V37h17V32H103Zm27-24h16.67a6.65,6.65,0,0,1,4.15,1.46l.68.55A6.65,6.65,0,0,1,154,39.2V51.47a3.69,3.69,0,0,1-1.08,2.61l-.84.84A3.69,3.69,0,0,1,149.47,56H134.53a3.69,3.69,0,0,1-2.61-1.08l-.84-.84A3.69,3.69,0,0,1,130,51.47Zm6.5,16.36a2.41,2.41,0,0,0,.52,1.52l.4.49a1.63,1.63,0,0,0,1.25.63h7.16a1.63,1.63,0,0,0,1.25-.63l.4-.49a2.41,2.41,0,0,0,.52-1.52V41.2a4.24,4.24,0,0,0-1.2-3l-.33-.32a2.85,2.85,0,0,0-2-.85h-8ZM164,56V39l10,17h9V32h-6V49L167,32h-9V56ZM50,43V40.64a2.73,2.73,0,0,1,.29-1.22l.32-.64a2.64,2.64,0,0,1,1.18-1.18h0A5.74,5.74,0,0,1,54.36,37H63v6Zm0,13V47H63v9h6V32H52.6a8.59,8.59,0,0,0-4.77,1.44h0A8.59,8.59,0,0,0,44,40.6V56Z" style="fill:#fff"/></svg>