<svg id="Layer_1" data-name="Layer 1" xmlns="http://www.w3.org/2000/svg" xmlns:xlink="http://www.w3.org/1999/xlink" viewBox="0 0 20 66" width="20" height="66"><defs><linearGradient id="New_Gradient_Swatch_copy" x1="10" y1="65.95" x2="10" y2="0.12" gradientUnits="userSpaceOnUse"><stop offset="0" stop-color="gray"/><stop offset="0.08" stop-color="#505050"/><stop offset="0.7" stop-color="#4d4d4d"/><stop offset="0.78" stop-color="#4d4d4d"/><stop offset="0.96" stop-color="#8c8a8a"/><stop offset="1" stop-color="#5c5959"/></linearGradient><radialGradient id="radial-gradient" cx="10.06" cy="13.26" r="7.44" gradientUnits="userSpaceOnUse"><stop offset="0.02" stop-color="#ffedd4"/><stop offset="0.4" stop-color="#f68763"/><stop offset="0.51" stop-color="#f47256"/><stop offset="1" stop-color="#ed1c24"/></radialGradient><radialGradient id="radial-gradient-2" cx="10.04" cy="53.37" r="7.52" gradientUnits="userSpaceOnUse"><stop offset="0.01" stop-color="#186000"/><stop offset="0.07" stop-color="#165b00"/><stop offset="0.45" stop-color="#0a3c02"/><stop offset="0.77" stop-color="#032a03"/><stop offset="1" stop-color="#002303"/></radialGradient><radialGradient id="radial-gradient-3" cx="10.06" cy="33.61" r="7.44" gradientUnits="userSpaceOnUse"><stop offset="0" stop-color="#7f4900"/><stop offset="0.15" stop-color="#603400"/><stop offset="0.32" stop-color="#412100"/><stop offset="0.47" stop-color="#2f1400"/><stop offset="0.57" stop-color="#281000"/></radialGradient></defs><title>red-lit</title><rect x="0.25" y="0.12" width="19.5" height="65.83" style="fill:url(#New_Gradient_Swatch_copy)"/><path d="M19.5.37V65.7H.5V.37h19m.5-.5H0V66.2H20V-.13Z"/><circle cx="10.06" cy="13.26" r="7.44" style="fill:url(#radial-gradient)"/><path d="M10.06,6.31a6.94,6.94,0,1,1-6.94,6.94,7,7,0,0,1,6.94-6.94m0-1A7.94,7.94,0,1,0,18,13.26a7.94,7.94,0,0,0-7.94-7.94Z"/><circle cx="10.04" cy="53.37" r="7.52" style="fill:url(#radial-gradient-2)"/><path d="M10,46.35a7,7,0,1,1-7,7,7,7,0,0,1,7-7m0-1a8,8,0,1,0,8,8,8,8,0,0,0-8-8Z"/><circle cx="10.06" cy="33.61" r="7.44" style="fill:url(#radial-gradient-3)"/><path d="M10.06,26.67a6.94,6.94,0,1,1-6.94,6.94,7,7,0,0,1,6.94-6.94m0-1A7.94,7.94,0,1,0,18,33.61a7.94,7.94,0,0,0-7.94-7.94Z"/></svg>