<svg xmlns="http://www.w3.org/2000/svg" viewBox="0 0 76.3 68.46"><title>small-logo</title><g id="Layer_2" data-name="Layer 2"><g id="Layer_1-2" data-name="Layer 1"><path d="M37.57,39.15,21.4,67.77a.47.47,0,0,0,.41.7H54.24a.47.47,0,0,0,.4-.7L38.19,39.14C38,38.83,37.75,38.84,37.57,39.15Z" style="fill:#e6e6e6"/><path d="M17.11,64.44.34,35.55a2.35,2.35,0,0,1,0-2.45L17.51,4.82a.61.61,0,0,1,1,0L34.83,33A2,2,0,0,1,35,35.26L18.37,64.41A.73.73,0,0,1,17.11,64.44Z" style="fill:#e6e6e6"/><path d="M58.23,64.44l-17-29.26a1.76,1.76,0,0,1-.17-2.08L57.34,4.82a.61.61,0,0,1,1,0L75.95,33a2.64,2.64,0,0,1,0,2.58L59.49,64.41A.73.73,0,0,1,58.23,64.44Z" style="fill:#e6e6e6"/><path d="M38.66,29.31,54.83.7a.47.47,0,0,0-.41-.7H21.81a.47.47,0,0,0-.4.7L37.85,29.32A.47.47,0,0,0,38.66,29.31Z" style="fill:#e6e6e6"/></g></g></svg>