<svg id="Layer_1" data-name="Layer 1" xmlns="http://www.w3.org/2000/svg" viewBox="0 0 79 71"><title>small_logo</title><circle cx="38.09" cy="36.79" r="32" style="fill:#333;stroke:#e6e6e6;stroke-miterlimit:10;stroke-width:3px"/><path d="M42.86,37.09,58.64,46.4a.26.26,0,0,0,.38-.23V27.5a.26.26,0,0,0-.39-.23L42.86,36.74C42.69,36.84,42.69,37,42.86,37.09Z" style="fill:#333;stroke:#e6e6e6;stroke-miterlimit:10;stroke-width:3px"/><path d="M54.82,51l-16,9.76a1.25,1.25,0,0,1-1.36,0l-15.66-10a.36.36,0,0,1,0-.61l15.62-9.47a1.07,1.07,0,0,1,1.23-.13l16.14,9.7A.44.44,0,0,1,54.82,51Z" style="fill:#333;stroke:#e6e6e6;stroke-miterlimit:10;stroke-width:3px"/><path d="M54.82,23.06l-16.2,9.81a.94.94,0,0,1-1.15.1l-15.66-9.4a.36.36,0,0,1,0-.6L37.43,12.8a1.41,1.41,0,0,1,1.43,0L54.8,22.33A.43.43,0,0,1,54.82,23.06Z" style="fill:#333;stroke:#e6e6e6;stroke-miterlimit:10;stroke-width:3px"/><path d="M33.32,36.47,17.55,27.16a.26.26,0,0,0-.38.23V46.17a.26.26,0,0,0,.39.23l15.78-9.47A.27.27,0,0,0,33.32,36.47Z" style="fill:#333;stroke:#e6e6e6;stroke-miterlimit:10;stroke-width:3px"/></svg>