<svg id="Layer_1" data-name="Layer 1" xmlns="http://www.w3.org/2000/svg" viewBox="0 0 79 71"><title>thumbsmall_logo</title><path d="M38.91,40.46,22.6,69.3A.47.47,0,0,0,23,70H55.74a.47.47,0,0,0,.41-.71L39.54,40.45C39.36,40.14,39.09,40.14,38.91,40.46Z" style="fill:#e6e6e6"/><path d="M18.26,66.08,1.16,36.83a2.36,2.36,0,0,1,0-2.48L18.67,5.73a.62.62,0,0,1,1.06,0l16.6,28.55a2,2,0,0,1,.22,2.24L19.55,66A.75.75,0,0,1,18.26,66.08Z" style="fill:#e6e6e6"/><path d="M59.76,66.08,42.55,36.46a1.78,1.78,0,0,1-.18-2.11L58.86,5.73a.62.62,0,0,1,1.06,0L77.74,34.29a2.67,2.67,0,0,1,0,2.61L61,66A.74.74,0,0,1,59.76,66.08Z" style="fill:#e6e6e6"/><path d="M40,30.54,56.33,1.7a.47.47,0,0,0-.41-.7H23a.47.47,0,0,0-.41.71L39.2,30.55A.47.47,0,0,0,40,30.54Z" style="fill:#e6e6e6"/></svg>