<svg id="Layer_1" data-name="Layer 1" xmlns="http://www.w3.org/2000/svg" viewBox="0 0 200 200"><title>XMR</title><path d="M139,147V96l-38,36L63,96v51H37.8a77.9,77.9,0,0,0,124.4,0Z" style="fill:#1a1a1a"/><path d="M28.44,131H47.5V57L101,111l53.5-54v74h17.06a78,78,0,1,0-143.12,0Z" style="fill:#f15a24"/><path d="M100,12a88,88,0,1,0,88,88A88,88,0,0,0,100,12Zm0,166a77.92,77.92,0,0,1-62.2-31H63V96l38,36,38-36v51h23.2A77.92,77.92,0,0,1,100,178Zm0-156a78,78,0,0,1,71.56,109H154.5V57L101,111,47.5,57v74H28.44A78,78,0,0,1,100,22Z" style="fill:#e6e6e6"/></svg>