<svg id="Layer_1" data-name="Layer 1" xmlns="http://www.w3.org/2000/svg" viewBox="0 0 200 200"><title>ZEC</title><circle cx="100" cy="99.5" r="87.5" style="fill:#fcee21;stroke:#fcee21;stroke-miterlimit:10"/><polygon points="61.87 53.77 88.29 53.77 88.29 33 111.3 33 111.3 53.77 138.13 53.77 138.13 75.37 90.94 129.04 138.13 129.04 138.13 150.64 111.3 150.64 111.3 170 88.29 170 88.29 150.64 61.87 150.64 61.87 129.04 108.65 75.37 61.87 75.37 61.87 53.77" style="fill:#1a1a1a"/><path d="M100,21A78,78,0,1,1,22,99a78.09,78.09,0,0,1,78-78m0-10a88,88,0,1,0,88,88,88,88,0,0,0-88-88Z" style="fill:#e6e6e6;stroke:#e6e6e6;stroke-miterlimit:10"/></svg>